<svg width="24" height="24" viewBox="0 0 24 24" fill="none" xmlns="http://www.w3.org/2000/svg">
<rect x="7" y="14" width="10" height="2" rx="1" fill="black"/>
<path d="M24 12C24 18.6274 18.6274 24 12 24C5.37258 24 0 18.6274 0 12C0 5.37258 5.37258 0 12 0C18.6274 0 24 5.37258 24 12ZM2.04372 12C2.04372 17.4987 6.5013 21.9563 12 21.9563C17.4987 21.9563 21.9563 17.4987 21.9563 12C21.9563 6.5013 17.4987 2.04372 12 2.04372C6.5013 2.04372 2.04372 6.5013 2.04372 12Z" fill="black"/>
<circle cx="9" cy="9" r="1" fill="black"/>
<circle cx="15" cy="9" r="1" fill="black"/>
<path d="M7 6L11 8M13 8L17 6" stroke="black"/>
</svg>
