<svg width="45" height="45" viewBox="0 0 45 45" fill="none" xmlns="http://www.w3.org/2000/svg">
<rect x="13.125" y="26.25" width="18.75" height="3.75" rx="1.875" fill="white"/>
<path d="M45 22.5C45 34.9264 34.9264 45 22.5 45C10.0736 45 0 34.9264 0 22.5C0 10.0736 10.0736 0 22.5 0C34.9264 0 45 10.0736 45 22.5ZM3.83198 22.5C3.83198 32.8101 12.1899 41.168 22.5 41.168C32.8101 41.168 41.168 32.8101 41.168 22.5C41.168 12.1899 32.8101 3.83198 22.5 3.83198C12.1899 3.83198 3.83198 12.1899 3.83198 22.5Z" fill="white"/>
<circle cx="16.875" cy="16.875" r="1.875" fill="white"/>
<circle cx="28.125" cy="16.875" r="1.875" fill="white"/>
<path d="M13.125 11.25L20.625 15M24.375 15L31.875 11.25" stroke="white" stroke-width="1.875"/>
</svg>
