<svg width="500" height="500" viewBox="0 0 500 500" fill="none" xmlns="http://www.w3.org/2000/svg">
<path d="M250 458.333C365.059 458.333 458.333 365.059 458.333 250C458.333 134.941 365.059 41.6667 250 41.6667C134.941 41.6667 41.6667 134.941 41.6667 250C41.6667 365.059 134.941 458.333 250 458.333Z" stroke="black" stroke-width="41.6667" stroke-linecap="round" stroke-linejoin="round"/>
<path d="M166.667 312.5H333.333" stroke="black" stroke-width="41.6667" stroke-linecap="round" stroke-linejoin="round"/>
<path d="M187.5 187.5H187.708" stroke="black" stroke-width="41.6667" stroke-linecap="round" stroke-linejoin="round"/>
<path d="M312.5 187.5H312.708" stroke="black" stroke-width="41.6667" stroke-linecap="round" stroke-linejoin="round"/>
<path d="M216.84 121.82C216.44 122.727 216.013 123.513 215.56 124.18C215.12 124.833 214.553 125.333 213.86 125.68C213.167 126.027 212.26 126.2 211.14 126.2C210.793 126.2 210.413 126.173 210 126.12C209.587 126.067 209.207 125.993 208.86 125.9V123.3C209.18 123.433 209.533 123.527 209.92 123.58C210.307 123.633 210.667 123.66 211 123.66C211.44 123.66 211.793 123.587 212.06 123.44C212.34 123.293 212.56 123.093 212.72 122.84C212.893 122.573 213.033 122.287 213.14 121.98L208.2 111.72H211.4L214.06 117.9C214.127 118.033 214.207 118.207 214.3 118.42C214.393 118.633 214.487 118.853 214.58 119.08C214.673 119.307 214.747 119.507 214.8 119.68H214.9C214.953 119.52 215.02 119.327 215.1 119.1C215.193 118.86 215.287 118.62 215.38 118.38C215.487 118.127 215.58 117.907 215.66 117.72L218.14 111.72H221.26L216.84 121.82ZM232.502 117.94C232.502 118.527 232.315 119.027 231.942 119.44C231.582 119.853 231.042 120.12 230.322 120.24V120.32C231.082 120.413 231.688 120.673 232.142 121.1C232.608 121.527 232.842 122.073 232.842 122.74C232.842 123.207 232.748 123.64 232.562 124.04C232.388 124.44 232.108 124.787 231.722 125.08C231.335 125.373 230.835 125.6 230.222 125.76C229.622 125.92 228.888 126 228.022 126H222.822V115.08H228.022C228.875 115.08 229.635 115.173 230.302 115.36C230.982 115.533 231.515 115.827 231.902 116.24C232.302 116.653 232.502 117.22 232.502 117.94ZM229.762 122.58C229.762 122.153 229.595 121.847 229.262 121.66C228.928 121.46 228.428 121.36 227.762 121.36H225.802V123.94H227.822C228.382 123.94 228.842 123.84 229.202 123.64C229.575 123.427 229.762 123.073 229.762 122.58ZM229.482 118.18C229.482 117.833 229.348 117.58 229.082 117.42C228.815 117.26 228.422 117.18 227.902 117.18H225.802V119.34H227.562C228.188 119.34 228.662 119.253 228.982 119.08C229.315 118.893 229.482 118.593 229.482 118.18ZM239.9 114.88C240.913 114.88 241.78 115.073 242.5 115.46C243.233 115.847 243.8 116.407 244.2 117.14C244.6 117.873 244.8 118.773 244.8 119.84V121.28H237.76C237.787 122.12 238.033 122.78 238.5 123.26C238.98 123.74 239.64 123.98 240.48 123.98C241.187 123.98 241.827 123.913 242.4 123.78C242.973 123.633 243.567 123.413 244.18 123.12V125.42C243.647 125.687 243.08 125.88 242.48 126C241.893 126.133 241.18 126.2 240.34 126.2C239.247 126.2 238.28 126 237.44 125.6C236.6 125.187 235.94 124.567 235.46 123.74C234.98 122.913 234.74 121.873 234.74 120.62C234.74 119.34 234.953 118.28 235.38 117.44C235.82 116.587 236.427 115.947 237.2 115.52C237.973 115.093 238.873 114.88 239.9 114.88ZM239.92 117C239.347 117 238.867 117.187 238.48 117.56C238.107 117.933 237.887 118.513 237.82 119.3H242C242 118.86 241.92 118.467 241.76 118.12C241.613 117.773 241.387 117.5 241.08 117.3C240.773 117.1 240.387 117 239.92 117ZM256.996 126H254.016V117.32H251.276C251.143 118.92 250.976 120.287 250.776 121.42C250.59 122.54 250.35 123.453 250.056 124.16C249.776 124.867 249.416 125.387 248.976 125.72C248.536 126.04 247.996 126.2 247.356 126.2C247.01 126.2 246.696 126.173 246.416 126.12C246.136 126.067 245.883 125.987 245.656 125.88V123.5C245.803 123.553 245.956 123.6 246.116 123.64C246.276 123.68 246.443 123.7 246.616 123.7C246.803 123.7 246.976 123.627 247.136 123.48C247.31 123.333 247.47 123.073 247.616 122.7C247.776 122.327 247.923 121.813 248.056 121.16C248.19 120.507 248.31 119.687 248.416 118.7C248.536 117.7 248.643 116.493 248.736 115.08H256.996V126ZM262.987 119.4C262.987 119.627 262.974 119.907 262.947 120.24C262.934 120.573 262.914 120.913 262.887 121.26C262.874 121.607 262.854 121.913 262.827 122.18C262.8 122.447 262.78 122.633 262.767 122.74L267.807 115.08H271.387V126H268.507V121.64C268.507 121.28 268.52 120.887 268.547 120.46C268.574 120.02 268.6 119.613 268.627 119.24C268.667 118.853 268.694 118.56 268.707 118.36L263.687 126H260.107V115.08H262.987V119.4ZM277.121 119.08C277.121 119.547 277.235 119.9 277.461 120.14C277.701 120.38 278.028 120.5 278.441 120.5C279.015 120.5 279.548 120.44 280.041 120.32C280.535 120.187 281.028 120.013 281.521 119.8V115.08H284.501V126H281.521V121.66C281.055 121.913 280.521 122.147 279.921 122.36C279.321 122.56 278.641 122.66 277.881 122.66C276.748 122.66 275.841 122.367 275.161 121.78C274.481 121.193 274.141 120.313 274.141 119.14V115.08H277.121V119.08ZM292.706 119.3C293.826 119.3 294.753 119.42 295.486 119.66C296.22 119.887 296.76 120.24 297.106 120.72C297.466 121.2 297.646 121.8 297.646 122.52C297.646 123.227 297.48 123.84 297.146 124.36C296.826 124.88 296.313 125.287 295.606 125.58C294.9 125.86 293.973 126 292.826 126H287.626V115.08H290.606V119.3H292.706ZM294.666 122.56C294.666 122.133 294.493 121.827 294.146 121.64C293.813 121.453 293.313 121.36 292.646 121.36H290.606V123.94H292.686C293.273 123.94 293.746 123.833 294.106 123.62C294.48 123.407 294.666 123.053 294.666 122.56Z" fill="white"/>
<path d="M160.96 303.712L158.956 307H156.94L159.376 303.232C159.144 303.136 158.912 302.996 158.68 302.812C158.448 302.62 158.256 302.368 158.104 302.056C157.952 301.736 157.876 301.344 157.876 300.88C157.876 300.088 158.16 299.484 158.728 299.068C159.296 298.644 160.092 298.432 161.116 298.432H163.9V307H162.088V303.712H160.96ZM161.188 299.92C160.876 299.92 160.608 299.956 160.384 300.028C160.168 300.1 160 300.216 159.88 300.376C159.768 300.536 159.712 300.748 159.712 301.012C159.712 301.388 159.836 301.688 160.084 301.912C160.34 302.128 160.724 302.236 161.236 302.236H162.088V299.92H161.188ZM174.376 301.792H172.228V307H170.44V301.792H168.292V300.448H174.376V301.792ZM178.167 300.328C178.775 300.328 179.295 300.444 179.727 300.676C180.167 300.908 180.507 301.244 180.747 301.684C180.987 302.124 181.107 302.664 181.107 303.304V304.168H176.883C176.899 304.672 177.047 305.068 177.327 305.356C177.615 305.644 178.011 305.788 178.515 305.788C178.939 305.788 179.323 305.748 179.667 305.668C180.011 305.58 180.367 305.448 180.735 305.272V306.652C180.415 306.812 180.075 306.928 179.715 307C179.363 307.08 178.935 307.12 178.431 307.12C177.775 307.12 177.195 307 176.691 306.76C176.187 306.512 175.791 306.14 175.503 305.644C175.215 305.148 175.071 304.524 175.071 303.772C175.071 303.004 175.199 302.368 175.455 301.864C175.719 301.352 176.083 300.968 176.547 300.712C177.011 300.456 177.551 300.328 178.167 300.328ZM178.179 301.6C177.835 301.6 177.547 301.712 177.315 301.936C177.091 302.16 176.959 302.508 176.919 302.98H179.427C179.427 302.716 179.379 302.48 179.283 302.272C179.195 302.064 179.059 301.9 178.875 301.78C178.691 301.66 178.459 301.6 178.179 301.6ZM182.161 303.076C182.161 302.108 182.281 301.288 182.521 300.616C182.761 299.936 183.141 299.396 183.661 298.996C184.181 298.588 184.861 298.312 185.701 298.168C186.125 298.096 186.553 298.036 186.985 297.988C187.425 297.932 187.877 297.876 188.341 297.82L188.545 299.38C188.345 299.404 188.125 299.432 187.885 299.464C187.645 299.488 187.401 299.516 187.153 299.548C186.913 299.572 186.681 299.6 186.457 299.632C186.233 299.664 186.029 299.692 185.845 299.716C185.549 299.764 185.289 299.832 185.065 299.92C184.841 300 184.653 300.116 184.501 300.268C184.349 300.42 184.229 300.628 184.141 300.892C184.061 301.148 184.009 301.48 183.985 301.888H184.069C184.165 301.736 184.297 301.584 184.465 301.432C184.641 301.28 184.857 301.152 185.113 301.048C185.369 300.944 185.661 300.892 185.989 300.892C186.509 300.892 186.961 301 187.345 301.216C187.729 301.432 188.025 301.752 188.233 302.176C188.441 302.6 188.545 303.128 188.545 303.76C188.545 304.504 188.409 305.124 188.137 305.62C187.865 306.116 187.489 306.492 187.009 306.748C186.529 306.996 185.973 307.12 185.341 307.12C184.861 307.12 184.425 307.032 184.033 306.856C183.641 306.68 183.305 306.42 183.025 306.076C182.745 305.732 182.529 305.308 182.377 304.804C182.233 304.3 182.161 303.724 182.161 303.076ZM185.449 305.668C185.705 305.668 185.925 305.612 186.109 305.5C186.301 305.388 186.449 305.204 186.553 304.948C186.665 304.692 186.721 304.348 186.721 303.916C186.721 303.396 186.633 302.984 186.457 302.68C186.289 302.368 185.993 302.212 185.569 302.212C185.313 302.212 185.073 302.276 184.849 302.404C184.633 302.524 184.449 302.664 184.297 302.824C184.145 302.976 184.041 303.108 183.985 303.22C183.985 303.532 184.009 303.836 184.057 304.132C184.105 304.42 184.185 304.68 184.297 304.912C184.409 305.144 184.557 305.328 184.741 305.464C184.933 305.6 185.169 305.668 185.449 305.668ZM191.018 307H189.086L190.85 304.408C190.626 304.312 190.414 304.184 190.214 304.024C190.022 303.856 189.866 303.644 189.746 303.388C189.626 303.132 189.566 302.828 189.566 302.476C189.566 301.82 189.814 301.32 190.31 300.976C190.806 300.624 191.442 300.448 192.218 300.448H195.266V307H193.478V304.564H192.494L191.018 307ZM191.318 302.488C191.318 302.76 191.426 302.976 191.642 303.136C191.858 303.288 192.138 303.364 192.482 303.364H193.478V301.708H192.254C191.934 301.708 191.698 301.788 191.546 301.948C191.394 302.1 191.318 302.28 191.318 302.488ZM206.038 307H204.25V301.792H202.606C202.526 302.752 202.426 303.572 202.306 304.252C202.194 304.924 202.05 305.472 201.874 305.896C201.706 306.32 201.49 306.632 201.226 306.832C200.962 307.024 200.638 307.12 200.254 307.12C200.046 307.12 199.858 307.104 199.69 307.072C199.522 307.04 199.37 306.992 199.234 306.928V305.5C199.322 305.532 199.414 305.56 199.51 305.584C199.606 305.608 199.706 305.62 199.81 305.62C199.922 305.62 200.026 305.576 200.122 305.488C200.226 305.4 200.322 305.244 200.41 305.02C200.506 304.796 200.594 304.488 200.674 304.096C200.754 303.704 200.826 303.212 200.89 302.62C200.962 302.02 201.026 301.296 201.082 300.448H206.038V307ZM216.953 303.712C216.953 304.44 216.829 305.06 216.581 305.572C216.333 306.076 215.977 306.46 215.513 306.724C215.057 306.988 214.513 307.12 213.881 307.12C213.345 307.12 212.861 307.02 212.429 306.82C212.005 306.612 211.657 306.3 211.385 305.884C211.121 305.468 210.949 304.94 210.869 304.3H209.693V307H207.905V300.448H209.693V302.968H210.893C210.973 302.4 211.145 301.92 211.409 301.528C211.681 301.136 212.029 300.84 212.453 300.64C212.885 300.432 213.373 300.328 213.917 300.328C214.509 300.328 215.033 300.46 215.489 300.724C215.945 300.988 216.301 301.372 216.557 301.876C216.821 302.372 216.953 302.984 216.953 303.712ZM212.669 303.712C212.669 304.144 212.709 304.508 212.789 304.804C212.877 305.092 213.013 305.312 213.197 305.464C213.381 305.608 213.617 305.68 213.905 305.68C214.193 305.68 214.425 305.608 214.601 305.464C214.785 305.312 214.917 305.092 214.997 304.804C215.085 304.508 215.129 304.144 215.129 303.712C215.129 303.28 215.085 302.92 214.997 302.632C214.917 302.344 214.785 302.128 214.601 301.984C214.425 301.84 214.189 301.768 213.893 301.768C213.605 301.768 213.369 301.84 213.185 301.984C213.009 302.128 212.877 302.344 212.789 302.632C212.709 302.92 212.669 303.28 212.669 303.712ZM218.032 303.076C218.032 302.108 218.152 301.288 218.392 300.616C218.632 299.936 219.012 299.396 219.532 298.996C220.052 298.588 220.732 298.312 221.572 298.168C221.996 298.096 222.424 298.036 222.856 297.988C223.296 297.932 223.748 297.876 224.212 297.82L224.416 299.38C224.216 299.404 223.996 299.432 223.756 299.464C223.516 299.488 223.272 299.516 223.024 299.548C222.784 299.572 222.552 299.6 222.328 299.632C222.104 299.664 221.9 299.692 221.716 299.716C221.42 299.764 221.16 299.832 220.936 299.92C220.712 300 220.524 300.116 220.372 300.268C220.22 300.42 220.1 300.628 220.012 300.892C219.932 301.148 219.88 301.48 219.856 301.888H219.94C220.036 301.736 220.168 301.584 220.336 301.432C220.512 301.28 220.728 301.152 220.984 301.048C221.24 300.944 221.532 300.892 221.86 300.892C222.38 300.892 222.832 301 223.216 301.216C223.6 301.432 223.896 301.752 224.104 302.176C224.312 302.6 224.416 303.128 224.416 303.76C224.416 304.504 224.28 305.124 224.008 305.62C223.736 306.116 223.36 306.492 222.88 306.748C222.4 306.996 221.844 307.12 221.212 307.12C220.732 307.12 220.296 307.032 219.904 306.856C219.512 306.68 219.176 306.42 218.896 306.076C218.616 305.732 218.4 305.308 218.248 304.804C218.104 304.3 218.032 303.724 218.032 303.076ZM221.32 305.668C221.576 305.668 221.796 305.612 221.98 305.5C222.172 305.388 222.32 305.204 222.424 304.948C222.536 304.692 222.592 304.348 222.592 303.916C222.592 303.396 222.504 302.984 222.328 302.68C222.16 302.368 221.864 302.212 221.44 302.212C221.184 302.212 220.944 302.276 220.72 302.404C220.504 302.524 220.32 302.664 220.168 302.824C220.016 302.976 219.912 303.108 219.856 303.22C219.856 303.532 219.88 303.836 219.928 304.132C219.976 304.42 220.056 304.68 220.168 304.912C220.28 305.144 220.428 305.328 220.612 305.464C220.804 305.6 221.04 305.668 221.32 305.668ZM231.761 307H229.973V301.792H228.329C228.249 302.752 228.149 303.572 228.029 304.252C227.917 304.924 227.773 305.472 227.597 305.896C227.429 306.32 227.213 306.632 226.949 306.832C226.685 307.024 226.361 307.12 225.977 307.12C225.769 307.12 225.581 307.104 225.413 307.072C225.245 307.04 225.093 306.992 224.957 306.928V305.5C225.045 305.532 225.137 305.56 225.233 305.584C225.329 305.608 225.429 305.62 225.533 305.62C225.645 305.62 225.749 305.576 225.845 305.488C225.949 305.4 226.045 305.244 226.133 305.02C226.229 304.796 226.317 304.488 226.397 304.096C226.477 303.704 226.549 303.212 226.613 302.62C226.685 302.02 226.749 301.296 226.805 300.448H231.761V307ZM242.675 303.712C242.675 304.44 242.551 305.06 242.303 305.572C242.055 306.076 241.699 306.46 241.235 306.724C240.779 306.988 240.235 307.12 239.603 307.12C239.067 307.12 238.583 307.02 238.151 306.82C237.727 306.612 237.379 306.3 237.107 305.884C236.843 305.468 236.671 304.94 236.591 304.3H235.415V307H233.627V300.448H235.415V302.968H236.615C236.695 302.4 236.867 301.92 237.131 301.528C237.403 301.136 237.751 300.84 238.175 300.64C238.607 300.432 239.095 300.328 239.639 300.328C240.231 300.328 240.755 300.46 241.211 300.724C241.667 300.988 242.023 301.372 242.279 301.876C242.543 302.372 242.675 302.984 242.675 303.712ZM238.391 303.712C238.391 304.144 238.431 304.508 238.511 304.804C238.599 305.092 238.735 305.312 238.919 305.464C239.103 305.608 239.339 305.68 239.627 305.68C239.915 305.68 240.147 305.608 240.323 305.464C240.507 305.312 240.639 305.092 240.719 304.804C240.807 304.508 240.851 304.144 240.851 303.712C240.851 303.28 240.807 302.92 240.719 302.632C240.639 302.344 240.507 302.128 240.323 301.984C240.147 301.84 239.911 301.768 239.615 301.768C239.327 301.768 239.091 301.84 238.907 301.984C238.731 302.128 238.599 302.344 238.511 302.632C238.431 302.92 238.391 303.28 238.391 303.712ZM249.574 300.328C250.046 300.328 250.486 300.392 250.894 300.52C251.31 300.64 251.642 300.828 251.89 301.084C252.146 301.34 252.274 301.668 252.274 302.068C252.274 302.46 252.154 302.772 251.914 303.004C251.682 303.236 251.366 303.404 250.966 303.508V303.568C251.246 303.632 251.498 303.724 251.722 303.844C251.946 303.956 252.122 304.112 252.25 304.312C252.386 304.504 252.454 304.764 252.454 305.092C252.454 305.452 252.338 305.788 252.106 306.1C251.882 306.404 251.53 306.652 251.05 306.844C250.578 307.028 249.97 307.12 249.226 307.12C248.874 307.12 248.542 307.104 248.23 307.072C247.918 307.04 247.634 306.996 247.378 306.94C247.122 306.876 246.898 306.8 246.706 306.712V305.236C246.978 305.364 247.31 305.48 247.702 305.584C248.102 305.688 248.526 305.74 248.974 305.74C249.302 305.74 249.594 305.716 249.85 305.668C250.114 305.62 250.322 305.54 250.474 305.428C250.634 305.316 250.714 305.168 250.714 304.984C250.714 304.808 250.646 304.664 250.51 304.552C250.374 304.432 250.17 304.344 249.898 304.288C249.626 304.232 249.278 304.204 248.854 304.204H248.158V302.968H248.818C249.41 302.968 249.866 302.92 250.186 302.824C250.514 302.728 250.678 302.548 250.678 302.284C250.678 302.076 250.574 301.92 250.366 301.816C250.158 301.704 249.818 301.648 249.346 301.648C249.034 301.648 248.694 301.684 248.326 301.756C247.958 301.828 247.61 301.932 247.282 302.068L246.754 300.82C247.13 300.676 247.542 300.56 247.99 300.472C248.438 300.376 248.966 300.328 249.574 300.328ZM259.794 303.712C259.794 304.256 259.718 304.74 259.566 305.164C259.422 305.588 259.21 305.948 258.93 306.244C258.658 306.532 258.326 306.752 257.934 306.904C257.542 307.048 257.098 307.12 256.602 307.12C256.146 307.12 255.722 307.048 255.33 306.904C254.946 306.752 254.614 306.532 254.334 306.244C254.054 305.948 253.834 305.588 253.674 305.164C253.522 304.74 253.446 304.256 253.446 303.712C253.446 302.984 253.574 302.372 253.83 301.876C254.086 301.372 254.454 300.988 254.934 300.724C255.414 300.46 255.982 300.328 256.638 300.328C257.254 300.328 257.798 300.46 258.27 300.724C258.742 300.988 259.114 301.372 259.386 301.876C259.658 302.372 259.794 302.984 259.794 303.712ZM255.27 303.712C255.27 304.144 255.314 304.508 255.402 304.804C255.498 305.092 255.646 305.312 255.846 305.464C256.046 305.608 256.306 305.68 256.626 305.68C256.946 305.68 257.202 305.608 257.394 305.464C257.594 305.312 257.738 305.092 257.826 304.804C257.922 304.508 257.97 304.144 257.97 303.712C257.97 303.28 257.922 302.92 257.826 302.632C257.738 302.344 257.594 302.128 257.394 301.984C257.194 301.84 256.934 301.768 256.614 301.768C256.142 301.768 255.798 301.932 255.582 302.26C255.374 302.58 255.27 303.064 255.27 303.712ZM267.14 307H265.352V301.792H263.708C263.628 302.752 263.528 303.572 263.408 304.252C263.296 304.924 263.152 305.472 262.976 305.896C262.808 306.32 262.592 306.632 262.328 306.832C262.064 307.024 261.74 307.12 261.356 307.12C261.148 307.12 260.96 307.104 260.792 307.072C260.624 307.04 260.472 306.992 260.336 306.928V305.5C260.424 305.532 260.516 305.56 260.612 305.584C260.708 305.608 260.808 305.62 260.912 305.62C261.024 305.62 261.128 305.576 261.224 305.488C261.328 305.4 261.424 305.244 261.512 305.02C261.608 304.796 261.696 304.488 261.776 304.096C261.856 303.704 261.928 303.212 261.992 302.62C262.064 302.02 262.128 301.296 262.184 300.448H267.14V307ZM274.958 303.712C274.958 304.256 274.882 304.74 274.73 305.164C274.586 305.588 274.374 305.948 274.094 306.244C273.822 306.532 273.49 306.752 273.098 306.904C272.706 307.048 272.262 307.12 271.766 307.12C271.31 307.12 270.886 307.048 270.494 306.904C270.11 306.752 269.778 306.532 269.498 306.244C269.218 305.948 268.998 305.588 268.838 305.164C268.686 304.74 268.61 304.256 268.61 303.712C268.61 302.984 268.738 302.372 268.994 301.876C269.25 301.372 269.618 300.988 270.098 300.724C270.578 300.46 271.146 300.328 271.802 300.328C272.418 300.328 272.962 300.46 273.434 300.724C273.906 300.988 274.278 301.372 274.55 301.876C274.822 302.372 274.958 302.984 274.958 303.712ZM270.434 303.712C270.434 304.144 270.478 304.508 270.566 304.804C270.662 305.092 270.81 305.312 271.01 305.464C271.21 305.608 271.47 305.68 271.79 305.68C272.11 305.68 272.366 305.608 272.558 305.464C272.758 305.312 272.902 305.092 272.99 304.804C273.086 304.508 273.134 304.144 273.134 303.712C273.134 303.28 273.086 302.92 272.99 302.632C272.902 302.344 272.758 302.128 272.558 301.984C272.358 301.84 272.098 301.768 271.778 301.768C271.306 301.768 270.962 301.932 270.746 302.26C270.538 302.58 270.434 303.064 270.434 303.712ZM281.743 301.792H279.595V307H277.807V301.792H275.659V300.448H281.743V301.792ZM290.104 309.352H288.496V307H282.952V300.448H284.74V305.656H287.356V300.448H289.144V305.692H290.104V309.352ZM293.913 300.328C294.521 300.328 295.041 300.444 295.473 300.676C295.913 300.908 296.253 301.244 296.493 301.684C296.733 302.124 296.853 302.664 296.853 303.304V304.168H292.629C292.645 304.672 292.793 305.068 293.073 305.356C293.361 305.644 293.757 305.788 294.261 305.788C294.685 305.788 295.069 305.748 295.413 305.668C295.757 305.58 296.113 305.448 296.481 305.272V306.652C296.161 306.812 295.821 306.928 295.461 307C295.109 307.08 294.681 307.12 294.177 307.12C293.521 307.12 292.941 307 292.437 306.76C291.933 306.512 291.537 306.14 291.249 305.644C290.961 305.148 290.817 304.524 290.817 303.772C290.817 303.004 290.945 302.368 291.201 301.864C291.465 301.352 291.829 300.968 292.293 300.712C292.757 300.456 293.297 300.328 293.913 300.328ZM293.925 301.6C293.581 301.6 293.293 301.712 293.061 301.936C292.837 302.16 292.705 302.508 292.665 302.98H295.173C295.173 302.716 295.125 302.48 295.029 302.272C294.941 302.064 294.805 301.9 294.621 301.78C294.437 301.66 294.205 301.6 293.925 301.6Z" fill="white"/>
</svg>
