<svg width="35" height="35" viewBox="0 0 35 35" fill="none" xmlns="http://www.w3.org/2000/svg">
<path d="M30.3917 6.72292C29.6468 5.97772 28.7624 5.38657 27.7891 4.98325C26.8157 4.57993 25.7724 4.37234 24.7188 4.37234C23.6651 4.37234 22.6218 4.57993 21.6485 4.98325C20.6751 5.38657 19.7907 5.97772 19.0458 6.72292L17.5 8.26875L15.9542 6.72292C14.4496 5.21837 12.409 4.37312 10.2813 4.37312C8.1535 4.37312 6.1129 5.21837 4.60834 6.72292C3.10379 8.22747 2.25854 10.2681 2.25854 12.3958C2.25854 14.5236 3.10379 16.5642 4.60834 18.0688L6.15418 19.6146L17.5 30.9604L28.8458 19.6146L30.3917 18.0688C31.1369 17.3239 31.728 16.4395 32.1313 15.4661C32.5347 14.4928 32.7423 13.4495 32.7423 12.3958C32.7423 11.3422 32.5347 10.2989 32.1313 9.32553C31.728 8.35215 31.1369 7.46777 30.3917 6.72292Z" stroke="black" stroke-width="2.91667" stroke-linecap="round" stroke-linejoin="round"/>
</svg>
