<svg width="500" height="500" viewBox="0 0 500 500" fill="none" xmlns="http://www.w3.org/2000/svg">
<path d="M434.167 96.0417C423.526 85.3959 410.892 76.951 396.986 71.1893C383.081 65.4275 368.177 62.462 353.125 62.462C338.073 62.462 323.169 65.4275 309.263 71.1893C295.358 76.951 282.724 85.3959 272.083 96.0417L250 118.125L227.917 96.0417C206.423 74.5481 177.271 62.4731 146.875 62.4731C116.478 62.4731 87.3269 74.5481 65.8333 96.0417C44.3397 117.535 32.2647 146.687 32.2647 177.083C32.2647 207.48 44.3397 236.631 65.8333 258.125L87.9166 280.208L250 442.292L412.083 280.208L434.167 258.125C444.812 247.484 453.257 234.85 459.019 220.945C464.781 207.039 467.746 192.135 467.746 177.083C467.746 162.032 464.781 147.127 459.019 133.222C453.257 119.316 444.812 106.682 434.167 96.0417Z" stroke="#FF8686" stroke-width="41.6667" stroke-linecap="round" stroke-linejoin="round"/>
<path d="M133.88 200.136L127.868 210H121.82L129.128 198.696C128.432 198.408 127.736 197.988 127.04 197.436C126.344 196.86 125.768 196.104 125.312 195.168C124.856 194.208 124.628 193.032 124.628 191.64C124.628 189.264 125.48 187.452 127.184 186.204C128.888 184.932 131.276 184.296 134.348 184.296H142.7V210H137.264V200.136H133.88ZM134.564 188.76C133.628 188.76 132.824 188.868 132.152 189.084C131.504 189.3 131 189.648 130.64 190.128C130.304 190.608 130.136 191.244 130.136 192.036C130.136 193.164 130.508 194.064 131.252 194.736C132.02 195.384 133.172 195.708 134.708 195.708H137.264V188.76H134.564ZM174.127 194.376H167.683V210H162.319V194.376H155.875V190.344H174.127V194.376ZM185.502 189.984C187.326 189.984 188.886 190.332 190.182 191.028C191.502 191.724 192.522 192.732 193.242 194.052C193.962 195.372 194.322 196.992 194.322 198.912V201.504H181.65C181.698 203.016 182.142 204.204 182.982 205.068C183.846 205.932 185.034 206.364 186.546 206.364C187.818 206.364 188.97 206.244 190.002 206.004C191.034 205.74 192.102 205.344 193.206 204.816V208.956C192.246 209.436 191.226 209.784 190.146 210C189.09 210.24 187.806 210.36 186.294 210.36C184.326 210.36 182.586 210 181.074 209.28C179.562 208.536 178.374 207.42 177.51 205.932C176.646 204.444 176.214 202.572 176.214 200.316C176.214 198.012 176.598 196.104 177.366 194.592C178.158 193.056 179.25 191.904 180.642 191.136C182.034 190.368 183.654 189.984 185.502 189.984ZM185.538 193.8C184.506 193.8 183.642 194.136 182.946 194.808C182.274 195.48 181.878 196.524 181.758 197.94H189.282C189.282 197.148 189.138 196.44 188.85 195.816C188.586 195.192 188.178 194.7 187.626 194.34C187.074 193.98 186.378 193.8 185.538 193.8ZM197.483 198.228C197.483 195.324 197.843 192.864 198.563 190.848C199.283 188.808 200.423 187.188 201.983 185.988C203.543 184.764 205.583 183.936 208.103 183.504C209.375 183.288 210.659 183.108 211.955 182.964C213.275 182.796 214.631 182.628 216.023 182.46L216.635 187.14C216.035 187.212 215.375 187.296 214.655 187.392C213.935 187.464 213.203 187.548 212.459 187.644C211.739 187.716 211.043 187.8 210.371 187.896C209.699 187.992 209.087 188.076 208.535 188.148C207.647 188.292 206.867 188.496 206.195 188.76C205.523 189 204.959 189.348 204.503 189.804C204.047 190.26 203.687 190.884 203.423 191.676C203.183 192.444 203.027 193.44 202.955 194.664H203.207C203.495 194.208 203.891 193.752 204.395 193.296C204.923 192.84 205.571 192.456 206.339 192.144C207.107 191.832 207.983 191.676 208.967 191.676C210.527 191.676 211.883 192 213.035 192.648C214.187 193.296 215.075 194.256 215.699 195.528C216.323 196.8 216.635 198.384 216.635 200.28C216.635 202.512 216.227 204.372 215.411 205.86C214.595 207.348 213.467 208.476 212.027 209.244C210.587 209.988 208.919 210.36 207.023 210.36C205.583 210.36 204.275 210.096 203.099 209.568C201.923 209.04 200.915 208.26 200.075 207.228C199.235 206.196 198.587 204.924 198.131 203.412C197.699 201.9 197.483 200.172 197.483 198.228ZM207.347 206.004C208.115 206.004 208.775 205.836 209.327 205.5C209.903 205.164 210.347 204.612 210.659 203.844C210.995 203.076 211.163 202.044 211.163 200.748C211.163 199.188 210.899 197.952 210.371 197.04C209.867 196.104 208.979 195.636 207.707 195.636C206.939 195.636 206.219 195.828 205.547 196.212C204.899 196.572 204.347 196.992 203.891 197.472C203.435 197.928 203.123 198.324 202.955 198.66C202.955 199.596 203.027 200.508 203.171 201.396C203.315 202.26 203.555 203.04 203.891 203.736C204.227 204.432 204.671 204.984 205.223 205.392C205.799 205.8 206.507 206.004 207.347 206.004ZM224.054 210H218.258L223.55 202.224C222.878 201.936 222.242 201.552 221.642 201.072C221.066 200.568 220.598 199.932 220.238 199.164C219.878 198.396 219.698 197.484 219.698 196.428C219.698 194.46 220.442 192.96 221.93 191.928C223.418 190.872 225.326 190.344 227.654 190.344H236.798V210H231.434V202.692H228.482L224.054 210ZM224.954 196.464C224.954 197.28 225.278 197.928 225.926 198.408C226.574 198.864 227.414 199.092 228.446 199.092H231.434V194.124H227.762C226.802 194.124 226.094 194.364 225.638 194.844C225.182 195.3 224.954 195.84 224.954 196.464ZM269.367 200.136C269.367 201.768 269.139 203.22 268.683 204.492C268.251 205.764 267.615 206.844 266.775 207.732C265.959 208.596 264.963 209.256 263.787 209.712C262.611 210.144 261.279 210.36 259.791 210.36C258.423 210.36 257.151 210.144 255.975 209.712C254.823 209.256 253.827 208.596 252.987 207.732C252.147 206.844 251.487 205.764 251.007 204.492C250.551 203.22 250.323 201.768 250.323 200.136C250.323 197.952 250.707 196.116 251.475 194.628C252.243 193.116 253.347 191.964 254.787 191.172C256.227 190.38 257.931 189.984 259.899 189.984C261.747 189.984 263.379 190.38 264.795 191.172C266.211 191.964 267.327 193.116 268.143 194.628C268.959 196.116 269.367 197.952 269.367 200.136ZM255.795 200.136C255.795 201.432 255.927 202.524 256.191 203.412C256.479 204.276 256.923 204.936 257.523 205.392C258.123 205.824 258.903 206.04 259.863 206.04C260.823 206.04 261.591 205.824 262.167 205.392C262.767 204.936 263.199 204.276 263.463 203.412C263.751 202.524 263.895 201.432 263.895 200.136C263.895 198.84 263.751 197.76 263.463 196.896C263.199 196.032 262.767 195.384 262.167 194.952C261.567 194.52 260.787 194.304 259.827 194.304C258.411 194.304 257.379 194.796 256.731 195.78C256.107 196.74 255.795 198.192 255.795 200.136ZM272.612 198.228C272.612 195.324 272.972 192.864 273.692 190.848C274.412 188.808 275.552 187.188 277.112 185.988C278.672 184.764 280.712 183.936 283.232 183.504C284.504 183.288 285.788 183.108 287.084 182.964C288.404 182.796 289.76 182.628 291.152 182.46L291.764 187.14C291.164 187.212 290.504 187.296 289.784 187.392C289.064 187.464 288.332 187.548 287.588 187.644C286.868 187.716 286.172 187.8 285.5 187.896C284.828 187.992 284.216 188.076 283.664 188.148C282.776 188.292 281.996 188.496 281.324 188.76C280.652 189 280.088 189.348 279.632 189.804C279.176 190.26 278.816 190.884 278.552 191.676C278.312 192.444 278.156 193.44 278.084 194.664H278.336C278.624 194.208 279.02 193.752 279.524 193.296C280.052 192.84 280.7 192.456 281.468 192.144C282.236 191.832 283.112 191.676 284.096 191.676C285.656 191.676 287.012 192 288.164 192.648C289.316 193.296 290.204 194.256 290.828 195.528C291.452 196.8 291.764 198.384 291.764 200.28C291.764 202.512 291.356 204.372 290.54 205.86C289.724 207.348 288.596 208.476 287.156 209.244C285.716 209.988 284.048 210.36 282.152 210.36C280.712 210.36 279.404 210.096 278.228 209.568C277.052 209.04 276.044 208.26 275.204 207.228C274.364 206.196 273.716 204.924 273.26 203.412C272.828 201.9 272.612 200.172 272.612 198.228ZM282.476 206.004C283.244 206.004 283.904 205.836 284.456 205.5C285.032 205.164 285.476 204.612 285.788 203.844C286.124 203.076 286.292 202.044 286.292 200.748C286.292 199.188 286.028 197.952 285.5 197.04C284.996 196.104 284.108 195.636 282.836 195.636C282.068 195.636 281.348 195.828 280.676 196.212C280.028 196.572 279.476 196.992 279.02 197.472C278.564 197.928 278.252 198.324 278.084 198.66C278.084 199.596 278.156 200.508 278.3 201.396C278.444 202.26 278.684 203.04 279.02 203.736C279.356 204.432 279.8 204.984 280.352 205.392C280.928 205.8 281.636 206.004 282.476 206.004ZM314.051 200.136C314.051 201.768 313.823 203.22 313.367 204.492C312.935 205.764 312.299 206.844 311.459 207.732C310.643 208.596 309.647 209.256 308.471 209.712C307.295 210.144 305.963 210.36 304.475 210.36C303.107 210.36 301.835 210.144 300.659 209.712C299.507 209.256 298.511 208.596 297.671 207.732C296.831 206.844 296.171 205.764 295.691 204.492C295.235 203.22 295.007 201.768 295.007 200.136C295.007 197.952 295.391 196.116 296.159 194.628C296.927 193.116 298.031 191.964 299.471 191.172C300.911 190.38 302.615 189.984 304.583 189.984C306.431 189.984 308.063 190.38 309.479 191.172C310.895 191.964 312.011 193.116 312.827 194.628C313.643 196.116 314.051 197.952 314.051 200.136ZM300.479 200.136C300.479 201.432 300.611 202.524 300.875 203.412C301.163 204.276 301.607 204.936 302.207 205.392C302.807 205.824 303.587 206.04 304.547 206.04C305.507 206.04 306.275 205.824 306.851 205.392C307.451 204.936 307.883 204.276 308.147 203.412C308.435 202.524 308.579 201.432 308.579 200.136C308.579 198.84 308.435 197.76 308.147 196.896C307.883 196.032 307.451 195.384 306.851 194.952C306.251 194.52 305.471 194.304 304.511 194.304C303.095 194.304 302.063 194.796 301.415 195.78C300.791 196.74 300.479 198.192 300.479 200.136ZM345.717 190.344L338.481 199.776L346.401 210H340.677L333.189 200.028V210H328.185V200.028L320.697 210H314.973L322.893 199.776L315.657 190.344H321.201L328.185 199.884V190.344H333.189V199.884L340.173 190.344H345.717ZM357.274 189.948C359.914 189.948 361.93 190.524 363.322 191.676C364.738 192.804 365.446 194.544 365.446 196.896V210H361.702L360.658 207.336H360.514C359.962 208.032 359.386 208.608 358.786 209.064C358.21 209.52 357.538 209.844 356.77 210.036C356.026 210.252 355.102 210.36 353.998 210.36C352.846 210.36 351.802 210.144 350.866 209.712C349.954 209.256 349.234 208.572 348.706 207.66C348.178 206.724 347.914 205.548 347.914 204.132C347.914 202.044 348.646 200.508 350.11 199.524C351.574 198.516 353.77 197.964 356.698 197.868L360.118 197.76V196.896C360.118 195.864 359.842 195.108 359.29 194.628C358.762 194.148 358.018 193.908 357.058 193.908C356.098 193.908 355.162 194.052 354.25 194.34C353.338 194.604 352.426 194.94 351.514 195.348L349.75 191.712C350.806 191.16 351.97 190.728 353.242 190.416C354.538 190.104 355.882 189.948 357.274 189.948ZM358.03 200.964C356.302 201.012 355.102 201.324 354.43 201.9C353.758 202.476 353.422 203.232 353.422 204.168C353.422 204.984 353.662 205.572 354.142 205.932C354.622 206.268 355.246 206.436 356.014 206.436C357.166 206.436 358.138 206.1 358.93 205.428C359.722 204.732 360.118 203.76 360.118 202.512V200.892L358.03 200.964ZM398.081 200.136C398.081 202.32 397.709 204.18 396.965 205.716C396.221 207.228 395.153 208.38 393.761 209.172C392.393 209.964 390.761 210.36 388.865 210.36C387.257 210.36 385.805 210.06 384.509 209.46C383.237 208.836 382.193 207.9 381.377 206.652C380.585 205.404 380.069 203.82 379.829 201.9H376.301V210H370.937V190.344H376.301V197.904H379.901C380.141 196.2 380.657 194.76 381.449 193.584C382.265 192.408 383.309 191.52 384.581 190.92C385.877 190.296 387.341 189.984 388.973 189.984C390.749 189.984 392.321 190.38 393.689 191.172C395.057 191.964 396.125 193.116 396.893 194.628C397.685 196.116 398.081 197.952 398.081 200.136ZM385.229 200.136C385.229 201.432 385.349 202.524 385.589 203.412C385.853 204.276 386.261 204.936 386.813 205.392C387.365 205.824 388.073 206.04 388.937 206.04C389.801 206.04 390.497 205.824 391.025 205.392C391.577 204.936 391.973 204.276 392.213 203.412C392.477 202.524 392.609 201.432 392.609 200.136C392.609 198.84 392.477 197.76 392.213 196.896C391.973 196.032 391.577 195.384 391.025 194.952C390.497 194.52 389.789 194.304 388.901 194.304C388.037 194.304 387.329 194.52 386.777 194.952C386.249 195.384 385.853 196.032 385.589 196.896C385.349 197.76 385.229 198.84 385.229 200.136Z" fill="white"/>
</svg>
