<svg width="866" height="500" viewBox="0 0 866 500" fill="none" xmlns="http://www.w3.org/2000/svg">
<path d="M428 458.333C543.059 458.333 636.333 365.059 636.333 250C636.333 134.941 543.059 41.6666 428 41.6666C312.941 41.6666 219.667 134.941 219.667 250C219.667 365.059 312.941 458.333 428 458.333Z" stroke="black" stroke-opacity="0.47" stroke-width="41.6667" stroke-linecap="round" stroke-linejoin="round"/>
<path d="M511.333 333.333C511.333 333.333 480.083 291.667 428 291.667C375.917 291.667 344.667 333.333 344.667 333.333" stroke="black" stroke-opacity="0.47" stroke-width="41.6667" stroke-linecap="round" stroke-linejoin="round"/>
<path d="M365.5 187.5H365.708" stroke="black" stroke-opacity="0.47" stroke-width="41.6667" stroke-linecap="round" stroke-linejoin="round"/>
<path d="M490.5 187.5H490.708" stroke="black" stroke-opacity="0.47" stroke-width="41.6667" stroke-linecap="round" stroke-linejoin="round"/>
<path d="M88.25 300H65.6V253.8H23.15V300H0.500001V192.9H23.15V234.9H65.6V192.9H88.25V300ZM134.997 250.5C134.997 252.2 134.897 254.3 134.697 256.8C134.597 259.3 134.447 261.85 134.247 264.45C134.147 267.05 133.997 269.35 133.797 271.35C133.597 273.35 133.447 274.75 133.347 275.55L171.147 218.1H197.997V300H176.397V267.3C176.397 264.6 176.497 261.65 176.697 258.45C176.897 255.15 177.097 252.1 177.297 249.3C177.597 246.4 177.797 244.2 177.897 242.7L140.247 300H113.397V218.1H134.997V250.5ZM241.006 248.1C241.006 251.6 241.856 254.25 243.556 256.05C245.356 257.85 247.806 258.75 250.906 258.75C255.206 258.75 259.206 258.3 262.906 257.4C266.606 256.4 270.306 255.1 274.006 253.5V218.1H296.356V300H274.006V267.45C270.506 269.35 266.506 271.1 262.006 272.7C257.506 274.2 252.406 274.95 246.706 274.95C238.206 274.95 231.406 272.75 226.306 268.35C221.206 263.95 218.656 257.35 218.656 248.55V218.1H241.006V248.1ZM353.544 216.6C361.144 216.6 367.644 218.05 373.044 220.95C378.544 223.85 382.794 228.05 385.794 233.55C388.794 239.05 390.294 245.8 390.294 253.8V264.6H337.494C337.694 270.9 339.544 275.85 343.044 279.45C346.644 283.05 351.594 284.85 357.894 284.85C363.194 284.85 367.994 284.35 372.294 283.35C376.594 282.25 381.044 280.6 385.644 278.4V295.65C381.644 297.65 377.394 299.1 372.894 300C368.494 301 363.144 301.5 356.844 301.5C348.644 301.5 341.394 300 335.094 297C328.794 293.9 323.844 289.25 320.244 283.05C316.644 276.85 314.844 269.05 314.844 259.65C314.844 250.05 316.444 242.1 319.644 235.8C322.944 229.4 327.494 224.6 333.294 221.4C339.094 218.2 345.844 216.6 353.544 216.6ZM353.694 232.5C349.394 232.5 345.794 233.9 342.894 236.7C340.094 239.5 338.444 243.85 337.944 249.75H369.294C369.294 246.45 368.694 243.5 367.494 240.9C366.394 238.3 364.694 236.25 362.394 234.75C360.094 233.25 357.194 232.5 353.694 232.5ZM464.967 218.1V234.9H430.767V300H408.417V218.1H464.967ZM552.983 258.9C552.983 265.7 552.033 271.75 550.133 277.05C548.333 282.35 545.683 286.85 542.183 290.55C538.783 294.15 534.633 296.9 529.733 298.8C524.833 300.6 519.283 301.5 513.083 301.5C507.383 301.5 502.083 300.6 497.183 298.8C492.383 296.9 488.233 294.15 484.733 290.55C481.233 286.85 478.483 282.35 476.483 277.05C474.583 271.75 473.633 265.7 473.633 258.9C473.633 249.8 475.233 242.15 478.433 235.95C481.633 229.65 486.233 224.85 492.233 221.55C498.233 218.25 505.333 216.6 513.533 216.6C521.233 216.6 528.033 218.25 533.933 221.55C539.833 224.85 544.483 229.65 547.883 235.95C551.283 242.15 552.983 249.8 552.983 258.9ZM496.433 258.9C496.433 264.3 496.983 268.85 498.083 272.55C499.283 276.15 501.133 278.9 503.633 280.8C506.133 282.6 509.383 283.5 513.383 283.5C517.383 283.5 520.583 282.6 522.983 280.8C525.483 278.9 527.283 276.15 528.383 272.55C529.583 268.85 530.183 264.3 530.183 258.9C530.183 253.5 529.583 249 528.383 245.4C527.283 241.8 525.483 239.1 522.983 237.3C520.483 235.5 517.233 234.6 513.233 234.6C507.333 234.6 503.033 236.65 500.333 240.75C497.733 244.75 496.433 250.8 496.433 258.9ZM631.743 218.1V249.6H662.943V218.1H685.293V300H662.943V266.25H631.743V300H609.393V218.1H631.743ZM742.46 216.6C750.06 216.6 756.56 218.05 761.96 220.95C767.46 223.85 771.71 228.05 774.71 233.55C777.71 239.05 779.21 245.8 779.21 253.8V264.6H726.41C726.61 270.9 728.46 275.85 731.96 279.45C735.56 283.05 740.51 284.85 746.81 284.85C752.11 284.85 756.91 284.35 761.21 283.35C765.51 282.25 769.96 280.6 774.56 278.4V295.65C770.56 297.65 766.31 299.1 761.81 300C757.41 301 752.06 301.5 745.76 301.5C737.56 301.5 730.31 300 724.01 297C717.71 293.9 712.76 289.25 709.16 283.05C705.56 276.85 703.76 269.05 703.76 259.65C703.76 250.05 705.36 242.1 708.56 235.8C711.86 229.4 716.41 224.6 722.21 221.4C728.01 218.2 734.76 216.6 742.46 216.6ZM742.61 232.5C738.31 232.5 734.71 233.9 731.81 236.7C729.01 239.5 727.36 243.85 726.86 249.75H758.21C758.21 246.45 757.61 243.5 756.41 240.9C755.31 238.3 753.61 236.25 751.31 234.75C749.01 233.25 746.11 232.5 742.61 232.5ZM865.133 234.9H838.283V300H815.933V234.9H789.083V218.1H865.133V234.9Z" fill="white"/>
</svg>
